<svg height='100px' width='100px'  fill="#000000" xmlns="http://www.w3.org/2000/svg" viewBox="0 0 26.458333 26.458334" x="0px" y="0px"><path d="m2.4059151 273.45256c-.9717388-.0296-1.1346913 1.37821-.1819026 1.57146l1.7554629.38447c.9285395 4.44188 1.9403127 8.86561 2.9218126 13.29635.080711.36329.4030147.62177.7751541.62166h13.9393269c1.073922.0159 1.073922-1.60327 0-1.5875h-13.3021511l-.3514022-1.58697h14.3568753c.37214.00011.694442-.25837.775154-.62167l1.757532-7.93646c.109584-.49538-.267314-.96502-.774638-.96531-6.073114.00013-12.145743-.00008-18.2186925-.003l-.4315019-2.04792c-.064311-.30552-.3017577-.54494-.6066845-.61185l-2.2572496-.49403c-.05156-.0119-.1041919-.0183-.1570954-.0196zm7.7913249 6.08436h8.976797c1.073422-.0152 1.073422 1.60258 0 1.5875h-8.976797c-1.0734238.0152-1.0734238-1.60258 0-1.5875zm0 2.11666h8.976797c1.073422-.0152 1.073422 1.60259 0 1.5875h-8.976797c-1.0734238.0152-1.0734238-1.60258 0-1.5875zm.783423 8.20262c-1.1595394 0-2.1166861.95707-2.1166861 2.11666 0 1.15962.9571467 2.11667 2.1166861 2.11667 1.159542 0 2.116686-.95705 2.116686-2.11667 0-1.15959-.957144-2.11666-2.116686-2.11666zm7.407882 0c-1.159539 0-2.116685.95707-2.116685 2.11666 0 1.15962.957146 2.11667 2.116685 2.11667 1.159541 0 2.116686-.95705 2.116686-2.11667 0-1.15959-.957145-2.11666-2.116686-2.11666z" transform="translate(0 -270.54165)"></path></svg>